<?xml version="1.0" encoding="UTF-8" standalone="no"?>
<svg
   xmlns:dc="http://purl.org/dc/elements/1.1/"
   xmlns:cc="http://creativecommons.org/ns#"
   xmlns:rdf="http://www.w3.org/1999/02/22-rdf-syntax-ns#"
   xmlns:svg="http://www.w3.org/2000/svg"
   xmlns="http://www.w3.org/2000/svg"
   xmlns:sodipodi="http://sodipodi.sourceforge.net/DTD/sodipodi-0.dtd"
   xmlns:inkscape="http://www.inkscape.org/namespaces/inkscape"
   inkscape:version="1.0 (4035a4fb49, 2020-05-01)"
   sodipodi:docname="pipeline.svg"
   xml:space="preserve"
   enable-background="new 0 0 16 16"
   viewBox="0 0 16 16"
   y="0px"
   x="0px"
   id="Layer_1"
   version="1.1"><metadata
   id="metadata12"><rdf:RDF><cc:Work
       rdf:about=""><dc:format>image/svg+xml</dc:format><dc:type
         rdf:resource="http://purl.org/dc/dcmitype/StillImage" /></cc:Work></rdf:RDF></metadata><defs
   id="defs10"><filter
     id="filter851"
     inkscape:label="Colorize"
     style="color-interpolation-filters:sRGB;"><feComposite
       id="feComposite837"
       result="composite1"
       k2="1"
       k1="0"
       operator="arithmetic"
       in2="SourceGraphic" /><feColorMatrix
       id="feColorMatrix839"
       result="colormatrix1"
       type="saturate"
       values="1"
       in="composite1" /><feFlood
       id="feFlood841"
       result="flood1"
       flood-color="rgb(158,187,0)"
       flood-opacity="1" /><feBlend
       id="feBlend843"
       result="blend1"
       mode="multiply"
       in2="colormatrix1"
       in="flood1" /><feBlend
       id="feBlend845"
       result="blend2"
       mode="screen"
       in2="blend1" /><feColorMatrix
       id="feColorMatrix847"
       result="colormatrix2"
       type="saturate"
       values="1"
       in="blend2" /><feComposite
       id="feComposite849"
       result="composite2"
       k2="1"
       operator="in"
       in2="SourceGraphic"
       in="colormatrix2" /></filter></defs><sodipodi:namedview
   inkscape:current-layer="Layer_1"
   inkscape:window-maximized="1"
   inkscape:window-y="0"
   inkscape:window-x="0"
   inkscape:cy="8"
   inkscape:cx="7.9165701"
   inkscape:zoom="53.9375"
   showgrid="false"
   id="namedview8"
   inkscape:window-height="1020"
   inkscape:window-width="1920"
   inkscape:pageshadow="2"
   inkscape:pageopacity="0"
   guidetolerance="10"
   gridtolerance="10"
   objecttolerance="10"
   borderopacity="1"
   bordercolor="#666666"
   pagecolor="#ffffff" />
<g
   style="filter:url(#filter851);fill:#00ff00"
   id="graph_1_">
	<g
   style="fill:#00ff00"
   id="g4">
		<path
   style="fill:#00ff00"
   id="path2"
   d="M14,3c-1.06,0-1.92,0.83-1.99,1.88l-1.93,0.97C9.54,5.32,8.81,5,8,5    C7.44,5,6.92,5.16,6.48,5.43L3.97,3.34C3.98,3.23,4,3.12,4,3c0-1.1-0.9-2-2-2S0,1.9,0,3c0,1.1,0.9,2,2,2    c0.24,0,0.47-0.05,0.68-0.13l2.51,2.09C5.08,7.29,5,7.63,5,8c0,0.96,0.46,1.81,1.16,2.35L5.6,12.04C4.69,12.23,4,13.03,4,14    c0,1.1,0.9,2,2,2s2-0.9,2-2c0-0.51-0.2-0.97-0.51-1.32l0.56-1.69C9.69,10.96,11,9.64,11,8c0-0.12-0.02-0.24-0.04-0.36l1.94-0.97    C13.22,6.88,13.59,7,14,7c1.1,0,2-0.9,2-2C16,3.9,15.1,3,14,3z"
   clip-rule="evenodd"
   fill-rule="evenodd" />
	</g>
</g>
</svg>
